<?xml version="1.0" encoding="UTF-8"?>
<svg version="1.1" viewBox="0 0 1000 1018" width="1280" height="1280" xmlns="http://www.w3.org/2000/svg">
<path transform="translate(499)" d="m0 0h2l4 11 9 12 11 11 11 9 13 10 20 14 25 16 28 17 19 12 15 10 16 11 13 10 16 13 14 13 9 11 7 11 5 12 1 10h25l16 6 18 10 20 14 11 9 26 24 15 14 12 11 13 12 15 14 12 11 15 14 14 12 13 9 16 9 10 4 12 2-6 7-4 5-9 17-7 20-7 24-11 51-9 42-10 45-8 27-7 20-10 21-8 12-9 10-8 5h-3l6 16 2 11v11l-4 27-7 28-11 33-14 34-15 36-15 38-10 28-7 25-1 6v15l1 14-5-2-10-5-12-3h-59l-102 10-22 1h-42l-19-3-17-5-11-6-7-7-4-1-8 7-5 4-11 5-15 4-14 2-36 1-36-2-62-6-36-4h-59l-13 4-11 6h-2l1-11v-15l-5-25-12-36-11-28-15-36-15-38-13-36-7-24-4-20-1-8v-22l2-11 5-12-5-1-8-6-8-8-9-14-9-19-11-33-8-32-18-89-13-52-7-20-8-17-9-10-2-2v-3l14-3 12-5 13-8 13-10 12-11 10-8 15-14 8-7 14-14 8-7 12-12 11-9 13-12 11-9 7-7 17-13 10-7 15-9 15-7 10-3h22l1-10 5-12 9-14 11-12 13-13 14-11 13-10 12-8 23-15 19-12 26-16 19-12 27-18 14-11 12-11 8-8 7-11z" fill="#108C4B"/>
<path transform="translate(479,270)" d="m0 0h43l23 3 25 6 24 8 24 11 19 11 16 11 16 13 12 11 13 13 9 11 13 17 11 17 12 22 9 20 7 19 6 21 5 25 3 28v40l-3 27-6 29-7 24-10 25-9 19-10 16-14 21v1l28-7 17-3h15l-2 5-13 12-8 8-7 8-13 14-7 10v2l16 10 13 10 11 9 10 9 1 3-27 5-22 5-26 9-28 11-3 1-1 24-6 4-32 10-35 9-21 4h-6l-1 1-27 3-30 1-25-1-35-4-36-7-35-9-35-11-1-24-14-7-36-12-27-7-27-5-2-1 2-4 14-12 19-14 16-10-5-9-11-12-7-8-26-26-1-4h16l25 6 14 3-13-20-11-19-9-17-10-25-7-23-6-31-3-27v-38l3-27 6-29 9-29 11-27 10-20 11-18 12-16 9-11 14-15 14-13 17-13 10-7 20-12 25-12 22-8 23-6 23-4z" fill="#322D2B"/>
<path transform="translate(479,270)" d="m0 0h43l23 3 25 6 24 8 24 11 19 11 16 11 16 13 12 11 13 13 9 11 13 17 11 17 12 22 9 20 7 19 6 21 5 25 3 28v40l-3 27-6 29-7 24-10 25-9 19-10 16-15 23-12 5-4-1-20-39-10-19-11-20-8-16-9-17v-2h-8l-1-1-1-103-27-10-78-31-14-5-10 2-25 9-36 15-48 19h-2v106l-7 1h-8l-2 5-6 12-4-5-3-2-2-9-4-2-6 1-5 7-6 3-1 6 5 18v5l-3-1-9-15-6-12v-6l6-8 9-8 9-3 1-1v-7l-3-4v-10l-4-3h-7l-4 5-8 2-2 4v24l-2 2-4-10-6-25v-2l10-8 10-4 1-1 9-1 2-2v-21l-1-4h-9l-3 2-11 1-2 4-3 16-3 9-2-2-2-18 1-17 10-7 16-4h7l3-2 1-13 2-5-1-5-3-3h-7l-6 1-6-1-4 3-5 16-4 9-2 1v-13l3-22 1-3 8-4 4-1 15-1 4 2 6-1 2-4 1-8 4-5v-6l-4-5h-11l-3-2h-8l-3 9-5 8-6 8-2-1 5-19 5-15 8-2h12l12 3 7 1 3-4 2-7 6-7-1-7-5-3-8-1-4-4h-6l-3 3-3 6-9 10-6 3 1-5 8-16 7-11 1-1 14 1 14 5 6 4h6l3-5 1-4 8-4 1-2v-6l-5-5-7-3-5-6-7 1-4 7-6 3-9 6-4-1 12-16 7-7 2-3 10 1 10 3 5 4 7 3 4 4h7l3-4 1-3 8-3 2-2 1-7-3-5-7-3-5-8h-6l-5 5-15 7-8 1 6-7 13-11 12-7 18-2h8l3-2 1-11 3-4v-7l-3-4h-12l-4-2-5 1-7 13-6 10-7 8-3 5-9 9-9 7-1-3 3-11 6-10 6-4 1-1v-8l-7-6-4-9-2-1h-6l-4 3-3 8-6 3-1 1 1 9 7 14 4 17 1 4-8 7-8 10-9 11-2 1v-12l5-12 5-4 1-7-2-4-7-3-4-8-2-1h-6l-3 3-3 9-6 5v6l7 9 5 8 5 14 2 4-9 14-9 17-3 6h-1l-1-16 2-10 4-6v-6l-4-3-7-2-3-5-3-2-6 1-3 5-1 8-4 5v7l4 3 3 1 7 8 5 8 3 5 4 3-9 27-5 22-4 29-1 13-2-3-5-10-1-13v-7l-4-4h-9l-1-3-9 1-4 4 1 8 1 3-1 3v8l3 2 15 4 8 6 2 2 5 1 1 29 3 24 6 24 4 11-1 3-9-7-4-7-3-11h-7l-4 3-9 1-4 3v7l5 5 2 10 7 1 4-2h12l8 1 5-1 5 12 10 18 4 8-6-1-8-6-4-8-5-2-4 1-3 4-9 3-2 2v6l4 5 3 1 3 8 1 1 7-1 7-5 17-2 3-1 5 5 1 2-11 23-12 22-7 14-7-1-13-5-5-5-11-17-11-19-9-17-10-25-7-23-6-31-3-27v-38l3-27 6-29 9-29 11-27 10-20 11-18 12-16 9-11 14-15 14-13 17-13 10-7 20-12 25-12 22-8 23-6 23-4z" fill="#FCFCFC"/>
<path transform="translate(576,634)" d="m0 0h57l16 31 12 22 18 35 12 22-1 4-11 6 9-3 19-8 19-6 21-5 8-1h10l-2 4-18 18-7 8-11 12-10 13v3l12 8 16 11 12 9 8 7 1 3-35 8-23 6-42 16h-2v-72l-12-2v2l5 1-1 2h-2v2l8-1v94l-12 5-31 10-28 7-29 5-18 2-15 1h-40l-25-2-33-5-36-8-35-10-15-5-3-3v-90l9 2 5 1-9-4v-2l25-6h4v17l-2 1 25 8 24 6 28 5 26 3 20 1h16l26-2 30-5 18-4h3l1-3 29-8 6-2v-16l-16 2-46 4-39 5-13 1h-16l-64-7-48-4-6-1-1-5-5-1-19-10v-1l41 1 38 3 71 8 25-2 44-4 36-3 26-1 13-2-41 1-47 4-53 5v-129l10-4 19-4 27-3z" fill="#FBFBFB"/>
<path transform="translate(499)" d="m0 0h2l4 11 9 12 11 11 11 9 13 10 20 14 25 16 28 17 19 12 15 10 16 11 13 10 16 13 14 13 9 11 7 11 5 12 1 10h25l16 6 18 10 20 14 11 9 26 24 15 14 12 11 13 12 15 14 12 11 15 14 14 12 13 9 16 9 10 4 12 2-6 7-4 5-9 17-7 20-7 24-11 51-9 42-10 45-8 27-7 20-10 21-8 12-9 10-8 5h-3l6 16 2 11v11l-4 27-7 28-11 33-14 34-15 36-15 38-10 28-7 25-1 6v15l1 14-5-2-10-5-12-3h-59l-102 10-22 1h-42l-19-3-17-5-11-6-7-7-4-1-8 7-5 4-11 5-15 4-14 2-36 1-36-2-62-6-36-4h-59l-13 4-11 6h-2l1-11v-15l-5-25-12-36-11-28-15-36-15-38-13-36-7-24-4-20-1-8v-22l2-11 5-12-5-1-8-6-8-8-9-14-9-19-11-33-8-32-18-89-13-52-7-20-8-17-9-10-2-2v-3l14-3 12-5 13-8 13-10 12-11 10-8 15-14 8-7 14-14 8-7 12-12 11-9 13-12 11-9 7-7 17-13 10-7 15-9 15-7 10-3h22l1-10 5-12 9-14 11-12 13-13 14-11 13-10 12-8 23-15 19-12 26-16 19-12 27-18 14-11 12-11 8-8 7-11zm1 17-10 18-11 12-10 9-19 14-21 14-19 12-48 30-22 15-16 12-11 9-10 9-13 13-11 15-6 16-2 9h-18l-12 3-16 7-13 8-17 12-11 9-13 11-10 9-8 7-16 15-13 12-16 15-12 11-15 13-14 11-15 11-14 8-9 3-13 2 2 4 8 10 9 17 10 30 9 38 15 72 10 40 8 26 10 24 9 16 8 10 7 6 8 5-2 8-4 14v18l3 21 6 24 12 36 18 46 16 39 12 33 8 29 3 18v19l-1 6 6-2 12-5 14-3h52l105 10 20 1h21l24-2 17-4 13-5 11-8 6-5 8 8 12 7 13 4 18 3 14 1h24l34-2 77-7 14-1h48l18 3 13 5 5 2v-29l4-20 11-33 32-79 13-35 10-31 6-25 3-24v-9l-3-16-4-11 11-7 9-10 9-14 8-17 12-36 10-41 18-84 8-31 7-21 9-19 8-10 4-4v-2l-15-3-17-8-14-10-13-11-11-9-14-13-8-7-15-14-13-12-8-8-8-7-7-7-8-7-15-13-17-13-14-10-18-10-13-5-10-2-18 1-3-14-8-16-8-10-9-10-10-9-14-11-13-10-20-14-17-11-28-17-22-14-19-13-12-9-10-8-14-12-10-10-10-19z" fill="#342D2C"/>
<path transform="translate(394,634)" d="m0 0h33l27 2 26 4 23 5v129l-17-1-67-7-43-3-34-1-20-9-8-4 1-4 12-24 10-19 14-27 12-23 9-16 3-1z" fill="#FCFCFC"/>
<path transform="translate(576,634)" d="m0 0h57l16 31 12 22 18 35 12 22-1 4-28 13-9 3-11 1-36 1-47 4-53 5v-129l10-4 19-4 27-3z" fill="#FCFCFC"/>
<path transform="translate(370,313)" d="m0 0h6l5 5 3 7 6 5v8l-6 5-4 4-4 8-2 11 13-11 6-6 4-7 6-7 6-10 5-10 2-2 6 1 2 1h12l4 5v7l-3 4-1 11-4 3h-12l-14 2-12 7-15 13-3 3 7-1 11-5 3-1 4-5 2-1h6l4 5 2 4 7 3 3 5-1 7-4 4-7 1-1 5-3 3h-7l-5-5-8-3-5-4-13-3h-5l-7 8-9 11-4 6 5-1 10-7h3l2-6 4-3h5l6 7 9 4 3 4v6l-5 5-5 1-1 7-3 3h-6l-6-4-8-3-6-2-14-1-8 13-8 16v2l6-4 7-8 5-9 2-1h6l4 3v2h8l5 3 2 4-1 6-6 6-2 8-3 3-7-1-12-3h-12l-8 1-2 9-6 20-1 5 5-5 5-9 5-10 2-1h6l3 2h11l5 6v6l-4 5-2 11-4 3-6-1-3-1-14 1-10 4h-2l-3 25v12l4-9 5-16 5-4 10 1 2-1h7l5 6-1 6-1 2-1 13-4 3h-10l-5 2-8 2-9 6-1 17 2 18 2-2 3-13 2-11 2-2 11-1 3-2h7l3 3 1 2v21l-3 3-9 1-9 4-6 4-4 4h-2l4 16 5 17 2 2v-24l3-5 8-2 4-5h7l5 4v10l3 4v7l-3 3-9 3-10 9-3 5 1 9 10 18 4 6 2 1-3-14 1-3 6 1 2 1 9 1v2l4-2 3 1-14 24h-3l-6-2-2 1-17 2-9 6h-5l-3-3-1-7-4-1-4-5v-6l5-4 7-1 2-4 2-2 7 1 3 3 4 8 9 5h2l-14-25-5-11-5 1-7-1h-12l-4 2-7-1-2-3-1-8-5-5v-7l5-4 9-1 4-3 7 1 6 15 4 5 6 4-3-10-6-22-3-18-1-11v-29h-5l-8-7-12-4-7-2-2-2v-8l1-4-2-5 1-7 4-3 5-1 4 1 1 2h10l4 5v14l2 9 4 7 4-33 5-24 5-17 5-14-5-4-6-11-7-7v-2l-5-1-3-3v-7l4-5 2-11 3-3 6-1 6 5v3l9 2 3 3v6l-4 6-2 10 1 15 8-16 9-16 3-4-2-4-6-16-7-10-4-5v-6l5-5h2l2-9 4-4h6l5 5 2 5 7 3 2 4-1 7-5 4-5 12v11l12-14 8-10 5-4-4-18-7-16-2-4v-6l5-4 3-1 3-8z" fill="#11984C"/>
<path transform="translate(730,445)" d="m0 0h1v15l-4 11-7 8-6 4-2 6 1 9 3-12 5-5 10-8 7-6-1 9-4 12-4 6-8 6-6 4-1 2v6l6-8 7-6 8-5 4-3h2l-2 9-6 12-7 6-12 6-1 9 6-9 20-12h3l-5 14-7 8-16 8-3 5 1 1 6-7 21-10h2l-3 9-4 6-8 7-15 6-1 6 8-7 18-7h3l-1 5-6 9-8 7 9-2 4-1-4 8-9 10-3 2 12-1-4 7-8 8-8 3h-16l-2 7 13-6 21-1-3 5-8 7-7 3h-20l2-13-3-6-6-2 4 8 1 11-4-2-4-3-3-1 4 10 2 9 3-7 2-3 2 4 5-2 6-1 16-1 6-1-2 4-7 7-7 4h-10l-13-1-1 4 9-2 25 1-5 6-8 5-3 1h-9l-9-3h-5l-1 4h17l15 2v2l-11 7-6 2-8-1-10-4h-4l-1 2 12 1 7 3 13 2-5 5-9 4h-10l16 5-3 3-11 4h-8l-8-4-5-4-8-16-10-19v-16l2-1 6 9-1-18 3 1 5 7-2-16 2-2 7 8-3-12v-6l2-2 5 6 2 1-4-12-1-8h2l4 5h2l-4-13v-5h2l6 7 3 1-5-9-2-11 5 2 7 5-2-4-5-8-2-7 1-4 8 6-6-12-1-9 11 7-2-4-5-8-4-11 5 2 16 9 7 8 4 8 1-2v-9l-2-4-14-4-7-6-8-14-1-4 5 2 4 1-8-11-2-4v-3l10 3-9-8-5-8 1-3 22 7 6 4 5 7 2-3 1 2 3-17 4-5 8-7 4-6z" fill="#F9D00A"/>
<path transform="translate(508,408)" d="m0 0 6 2 15 10 22 14 34 22 25 16 14 9 2 3v30l-2-1-2-6-35-16-36-16-29-14-12-5h-8l-12 5-29 13-44 19-29 12h-3v-22l9-6 84-51 20-12z" fill="#322D2B"/>
<path transform="translate(755,731)" d="m0 0h10l-2 4-18 18-7 8-11 12-10 13v3l12 8 16 11 12 9 8 7 1 3-35 8-23 6-42 16h-2v-72l-20-4-11-4 4-3 19-9 29-13 25-10 23-7 14-3z" fill="#FCFCFC"/>
<path transform="translate(238,731)" d="m0 0h12l23 5 24 8 25 11 28 13 21 10-2 2-26 6-2 1-1 69-9-2-25-10-26-8-26-6-15-3 1-4 10-9 18-13 18-12v-4l-9-11-9-10-7-8-12-13-11-11z" fill="#FBFBFB"/>
<path transform="translate(378,782)" d="m0 0 21 1 53 5 32 4 12 1h18l35-4 36-4 41-3v16l-9 4-36 9-33 6-17 2-15 1h-33l-31-3-28-5-25-6-21-6z" fill="#108C4C"/>
<path transform="translate(677,753)" d="m0 0 2 1-3 3-20 9-21 10 3 2 15 4-1 3 5 1-1 2h-2v3l-34 12-29 8v-3l29-8 6-2v-16l-16 2-46 4-39 5-13 1h-16l-64-7-48-4-6-1-1-5-5-1-19-10v-1l41 1 38 3 71 8 25-2 44-4 36-3 26-1 13-2 9-3 15-6z" fill="#C3C2C2"/>
<path transform="translate(538,557)" d="m0 0 23 1 23 2 1 1v19l-1 51-30 3-16 1z" fill="#FBFBFB"/>
<path transform="translate(730,445)" d="m0 0h1v15l-4 11-7 8-6 4-2 6 1 9 3-12 5-5 10-8 7-6-1 9-4 12-4 6-8 6-6 4-1 2v6l6-8 7-6 8-5 4-3h2l-2 9-6 12-7 6-12 6-1 9 6-9 20-12h3l-5 14-7 8-16 8-3 5-2 2-2-7-8-3-9-2-7-10-6-14h3l18 10 7 8 4 8 1-2v-9l-2-4-14-4-7-6-8-14-1-4 5 2 4 1-8-11-2-4v-3l10 3-9-8-5-8 1-3 22 7 6 4 5 7 2-3 1 2 3-17 4-5 8-7 4-6z" fill="#FAD00A"/>
<path transform="translate(186,454)" d="m0 0h7l10 3 6 4 5 6 2 6v9l-4 10-8 7-5 2h-13l-10-4-8-9-2-7 1-11 4-8 8-6z" fill="#FBFBFB"/>
<path transform="translate(712,401)" d="m0 0h1l1 7v21l-5 10-5 6-1 8 2 7 2-14 12-16 4-6h1v18l-3 10-4 6-6 5-2 4-1 6-5-5h-13l-7-3-8-7-8-9 1-2 8 1-12-9-4-5v-2h9l14 2 8 4 5 4 2-1 1 2v-14l3-9 6-10z" fill="#F9D00A"/>
<path transform="translate(310,256)" d="m0 0 4 2 13 15 9 11 5 6-1 4-4 3-4-2-9-10-7-9-2-1 11 28-1 4-3 3-5-1-22-13-1 1 11 13 6 8-5 5h-4l-12-14-9-11-7-9v-2l10-8 12 6 16 10-1-5-9-22 1-5z" fill="#FBFBFB"/>
<path transform="translate(234,729)" d="m0 0h16l25 6 6 2-1 2-24-6-6-1h-11l19 19 7 8 10 11 9 11 4 5-2 4-25 17-13 10-8 7-1 3 15 2 30 7 33 11 16 7 7 2v-69l7-3 21-4v3l-18 4h-3v2l9 3 5 2-3 1-16-5 1 92 10 3 42 12 36 8 33 5 25 2h40l24-2h10v2l-27 3-30 1-25-1-35-4-36-7-35-9-35-11-1-24-14-7-36-12-27-7-27-5-2-1 2-4 14-12 19-14 16-10-5-9-11-12-7-8-26-26z" fill="#2F362E"/>
<path transform="translate(818,444)" d="m0 0h4l7 26-1 8-4 5-4 2h-10l-4-2-4 5-9 4-7 2-2-9 14-7 1-5-3-11-14 3h-4l-2-9 8-3z" fill="#FBFBFB"/>
<path transform="translate(408,210)" d="m0 0h3l14 38 1 6-6 3-6-1-12-10-12-9-2-1 7 18 3 10-6 3-4-1-14-39 1-5 5-2 5 1 15 12 11 8-9-26 1-3z" fill="#FBFBFB"/>
<path transform="translate(788,598)" d="m0 0h8l37 6 2 1-1 10-25 11-7 3 7 2 19 3 2 1-1 9-12-1-34-6-1-2 2-8 12-6 19-8v-1l-24-4-4-2z" fill="#FBFBFB"/>
<path transform="translate(481,198)" d="m0 0h10l15 26 4 4v-21l1-8h9v26l-1 21h-10l-6-9-12-20-2-1v27l-1 2h-9v-19l1-27z" fill="#FBFBFB"/>
<path transform="translate(755,729)" d="m0 0h15l-2 5-13 12-8 8-7 8-13 14-7 10v2l16 10 13 10 11 9 10 9 1 3-27 5-22 5-26 9-28 11-3 1-1 24-6 4-32 10-35 9-21 4h-6l1-2 21-4 26-6 29-9 20-7 1-94-8 1v-2l2-1-4-2v-2l10 1 2 1v72l39-15 15-5 45-10 2-1-5-6-19-14-12-8-13-9 1-4 7-9 12-14 7-7 7-8 14-14 1-2-23 3-23 6-18 6 1-4 13-4 23-6z" fill="#2F342D"/>
<path transform="translate(550,202)" d="m0 0h7l9 3 5 5 3 4 1 8-9-1-4-7-4-2h-8l-6 5-3 9 1 10 4 5 3 1h9l3-1 1-6-8-2v-6l1-1 11 1 8 2-1 9-3 15-4 1-3-2v-3l-9 3-8-1-8-4-5-6-3-8v-9l4-11 6-7 6-3z" fill="#FBFBFB"/>
<path transform="translate(244,317)" d="m0 0 5 2 19 14 14 10-1 5-3 4-4-1-12-9-3 1-8 11 1 4 12 9v4l-4 5-5-2-19-14-14-10 1-5 4-4 5 2 8 6 4-1 8-11-1-3-11-8 1-5z" fill="#FBFBFB"/>
<path transform="translate(643,233)" d="m0 0 5 1 4 3-2 5-5 9 1 3 13 7h2l8-14 4 1 5 3-2 6-13 23-7 12-5-1-4-3 2-6 6-10-1-3-13-7h-2l-9 16-6-2-3-2 2-6 16-29z" fill="#FBFBFB"/>
<path transform="translate(792,547)" d="m0 0 45 18 1 1v10l-8 4-36 12h-4v-9l9-4h2v-17l-10-5v-9z" fill="#FBFBFB"/>
<path transform="translate(709,276)" d="m0 0 5 2 3 3-2 4-7 8-2 4 2-1 24-1 7 7v2l-19 1-5 1-4 28-1 4-4-1-5-5v-8l2-13v-5l-8 1-8 9-4-1-5-5 6-7 11-12z" fill="#FAFAFA"/>
<path transform="translate(207,373)" d="m0 0 45 6 4 2-4 8h-12l-7 13 2 4 4 5-2 6-2 3-3-1-9-11-11-12-9-11-1-5 4-6z" fill="#FBFBFB"/>
<path transform="translate(606,217)" d="m0 0 10 3 1 28v22l-7-1-3-2v-11l-10-3-7-2-6 7-7-1-3-3 24-28z" fill="#FAFAFA"/>
<path transform="translate(161,508)" d="m0 0 4 2 10 11 3 4 5-2 23-14 3 1-1 11-21 12 2 4 2 2 14 2 1 1v8l-1 1h-13l-28-2-6-2 1-9 18 1-7-9-7-7-2-3z" fill="#FBFBFB"/>
<path transform="translate(199,559)" d="m0 0h6l1 1 2 27v7l-1 1-37 3h-9l-1-5-2-29 5-2 4 1 2 24 9-1v-22l1-1h6l1 2 1 15 1 5 10-1-1-24z" fill="#FAFAFA"/>
<path transform="translate(747,315)" d="m0 0h4l11 14 9 12-5 5-4-2-12-15-4 1-3 2 1 5 9 11 2 4-5 4-3-1-11-14-2-1-7 5 2 5 9 11 3 4-1 3-4 3-4-2-11-14-8-10 2-4 13-11 14-11z" fill="#FBFBFB"/>
<path transform="translate(357,230)" d="m0 0h3l2 4v4l-19 10 1 5 1 4 7-3 14-7 3 4v4l-17 9 1 6 4 4 18-10 5 1 2 5-9 6-20 11h-3l-16-29-5-9v-4z" fill="#FAFAFA"/>
<path transform="translate(456,200)" d="m0 0h6l1 8-23 5v9l13-2 10-1 1 1v6l-6 2-14 3 1 10 9-1 10-2h6l1 8-29 6h-6l-6-28-3-17 9-3z" fill="#FBFBFB"/>
<path transform="translate(193,604)" d="m0 0h9l5 3 5 6 2 6v13l-3 6-4 4-5 1-2-5 1-5 4-4v-9l-3-5h-6l-2 8-1 13-3 6-6 4h-7l-7-4-5-10v-12l3-6 6-4 3 1 1 8-4 4v8l1 4h7l1-3 1-14 3-9 4-4z" fill="#FBFBFB"/>
<path transform="translate(798,392)" d="m0 0h4l2 5-1 5-28 12-3 4v6l4 6 6 1 20-8 7-3 5 1 2 4v4l-28 12-10 1-7-3-5-6-4-10v-9l4-7 8-5z" fill="#FBFBFB"/>
<path transform="translate(828,497)" d="m0 0h6l1 3v7l-30 4-5 2-2 2v10l3 4h13l17-2h6l2 7-1 3-22 3h-16l-5-3-5-6-2-7v-10l3-7 4-4 8-3z" fill="#FBFBFB"/>
<path transform="translate(279,446)" d="m0 0h6l5 5 10 2 3 3-1 7-2 4v13l3 12-2 3-6-4-7-8-7-5-7-2-2-2v-8l2-4v-11z" fill="#10984C"/>
<path transform="translate(594,302)" d="m0 0 7 4 11 13 4 10 3 18 2 3-8-1-8 6-10 3h-11l-13-2-1-2 24-12h7l7 1 2-1 4 2-4-5-8-7-3-5-5-22z" fill="#FAD00A"/>
<path transform="translate(662,344)" d="m0 0 5 5 5 11 2 8v11l-2 7v9l1 4-3-3-9 1-8 3-10-1-13-5-6-4v-2l12-2 8-2h7l10 4h3l3 1-7-14v-16z" fill="#FAD00A"/>
<path transform="translate(697,383)" d="m0 0h2l4 15v12l-4 9-4 8v9l-3-3v-2h-7l-4 1h-11l-10-5-10-8-1-3 26 1 10 5 2 2-1-6 3 2-1-5v-9l6-16z" fill="#FAD00A"/>
<path transform="translate(682,364)" d="m0 0 3 4 4 12 1 12-3 9-2 5v10l-4-3-8 1-7 2-9-1-14-7-5-4v-2l20-2h7l11 6-1-4 4 2-4-12 1-10 5-17z" fill="#FAD00A"/>
<path transform="translate(474,930)" d="m0 0h7l3 9 2 9v4h2l2-11 3-11h8l5 19v3h2l1-8 3-13 1-1h7l-2 10-6 23-1 2h-8l-5-18v-4h-2l-2 12-3 10h-8l-6-21-3-11z" fill="#FAFAFA"/>
<path transform="translate(266,555)" d="m0 0 11 1 7-1 4 4 2 16 4 7 4 5v5l-6-1-8-4-18-3-3-2v-11l-3-4v-6l4-5z" fill="#10984C"/>
<path transform="translate(516,851)" d="m0 0h20l3 2 1 8-2 4 4 4 1 5-2 5-4 3-3 1-18 1-2-24v-8z" fill="#332C2B"/>
<path transform="translate(740,510)" d="m0 0 2 1-5 14-7 8-16 8-3 5-2 2-2-7-8-3-9-2-7-10-6-14h3l18 10 7 8 4 8 2-5 3-3 6-8 16-9z" fill="#FAD00A"/>
<path transform="translate(588,930)" d="m0 0h23l5 4 1 9-4 6 3 3 1 5v8h-7l-3-12-2-1h-9l-1 13h-7l-1-34z" fill="#FBFBFB"/>
<path transform="translate(447,847)" d="m0 0 10 1 4 16 1 5 2-3 8-16 10 1-3 29-1 3h-5l-1-1 1-19-9 18h-6l-4-17v-4h-2l-1 14-2 6-5-1v-9z" fill="#332C2B"/>
<path transform="translate(728,587)" d="m0 0h5l-4 7-8 8-8 3h-16l-2 7 13-6 21-1-3 5-8 7-7 3h-20l2-13v-2l3-1 1-2 1-12h4l-1 7 8-6z" fill="#FAD00A"/>
<path transform="translate(672,625)" d="m0 0 5 1 4 4v8l-2 7-2 5h18l15 2v2l-11 7-6 2-8-1-10-4h-4l-1 4-8 5-3 1v-11l-3-9 1-3 6 4 5 5-2-13-1-5 5 2 4 4v-9z" fill="#FAFAFA"/>
<path transform="translate(750,366)" d="m0 0 3 1 3 7-5 4 1 7 5 1 16-9 13-8h3l4 8-9 6-20 12-5 2-9-1-7-8-2-4v-8l3-5z" fill="#FBFBFB"/>
<path transform="translate(290,930)" d="m0 0h21l6 5 1 2v8l-3 5-3 2-5 1h-9v11l-1 1h-7z" fill="#F9F9F9"/>
<path transform="translate(186,464)" d="m0 0 10 1 6 3 5 6v9l-3 5-6 3h-10l-10-5-3-5v-8l4-6z" fill="#108C4C"/>
<path transform="translate(688,930)" d="m0 0h8l11 17 2 5h2v-22h7v35h-8l-13-20v-2h-2v22h-7z" fill="#FCFCFC"/>
<path transform="translate(226,419)" d="m0 0 7 2-1 7-9 24-3 1-40-15-2-1 3-9 6 1 28 10h3l7-19z" fill="#FAFAFA"/>
<path transform="translate(677,753)" d="m0 0 2 1-3 3-20 9-21 10 3 2 15 4-1 3 5 1-1 2h-2v3l-34 12-29 8v-3l29-8 6-2v-23l16-6 2-2 4-3 14-4z" fill="#2F362E"/>
<path transform="translate(557,847)" d="m0 0h9l5 4 1 7-2 6 3 3 2 11h-6l-4-10h-10v12l-1 1h-6l-4-26v-6z" fill="#332C2B"/>
<path transform="translate(621,832)" d="m0 0 7 1 4 4v8l-1 3 4 2 5 10-6 2-6-9-11 1 3 9-1 5-5 1-9-25-1-6z" fill="#332C2B"/>
<path transform="translate(234,729)" d="m0 0h16l25 6 6 2-1 2-24-6-6-1h-11l19 19 7 8 10 11 9 11 4 5-2 4-25 17-13 10-8 7-1 3 15 2 30 7 33 11 16 7-3 1-28-10-31-9-26-5-12-3 2-4 14-12 19-14 16-10-5-9-11-12-7-8-26-26z" fill="#2E372F"/>
<path transform="translate(548,930)" d="m0 0h8l8 20 5 15h-8l-3-7h-12l-4 7h-7l3-10 9-24z" fill="#FAFAFA"/>
<path transform="translate(648,930)" d="m0 0h9l12 32v3h-7l-4-7h-12l-3 7h-7l2-9z" fill="#FBFAFA"/>
<path transform="translate(438,930)" d="m0 0h9l12 32v3h-7l-4-7h-12l-3 7h-7l1-6z" fill="#FAFAFA"/>
<path transform="translate(339,930)" d="m0 0h26v6l-18 1-1 7h17v6h-17l1 8 18 1v6h-26l-1-1v-33z" fill="#F9F9F9"/>
<path transform="translate(689,568)" d="m0 0 7 1 6 4 2 5 2-4 6-2 14-1 11-3-4 8-9 10-3 2h-4v2l-10 3-7 5 1-7-2-1-4-13z" fill="#FAD00A"/>
<path transform="translate(652,783)" d="m0 0 10 1 2 1v72l31-12 2 1-3 3-26 10-3 1-1 24-6 4-32 10-35 9-21 4h-6l1-2 21-4 26-6 29-9 20-7 1-94-8 1v-2l2-1-4-2z" fill="#31312C"/>
<path transform="translate(494,851)" d="m0 0h8l10 29v4h-6l-3-7-12-1-2 7h-7l1-5z" fill="#332C2B"/>
<path transform="translate(392,835)" d="m0 0 7 1 1 2 1 33-7-2v-8l-13-3-2 4-5 1-2-1 1-4 11-13z" fill="#332C2B"/>
<path transform="translate(558,319)" d="m0 0h18l11 3 9 7 11 10 1 3-6-2-19-1-7-4-13-11z" fill="#FAD00A"/>
<path transform="translate(402,360)" d="m0 0h7l4 8 7 2 2 2v7l-4 4-6 1-4 8h-5l-4-3-1-10-1-5 3-12z" fill="#FAFAFA"/>
<path transform="translate(372,315)" d="m0 0 6 2 1 1v8l7 3 2 3v5l-3 3-10 2-7-1-9-2-2-4 1-6 5-2h4v-9z" fill="#F9F9F9"/>
<path transform="translate(598,839)" d="m0 0h3l5 22-1 6-4 5-9 3-8-1-5-6-4-16-1-7 6-2 3 9 4 15 6 1 5-3-1-10-3-14z" fill="#332C2B"/>
<path transform="translate(331,353)" d="m0 0h8l2 2v8l8 1 2 2v6l-2 3-9 3-4 1-2-1-10-1-3-3 1-6 5-4h2v-8z" fill="#F9F9F9"/>
<path transform="translate(370,390)" d="m0 0h5l3 3 1 5h8l3 3v7l-3 3h-7v7l-3 4-6-1-3-9v-2h-2l1-17z" fill="#FAFAFA"/>
<path transform="translate(343,426)" d="m0 0h7l3 6 8-2 4 3v8l-5 3h-2v8l-2 3h-7l-5-9-2-1-1-9-1-6z" fill="#F9F9F9"/>
<path transform="translate(403,807)" d="m0 0 11 2 31 6 24 3 14 1h33l24-2 36-6 9-2h5v2l-25 6-26 4-26 2h-16l-30-2-29-4-32-7-3-1z" fill="#2E382F"/>
<path transform="translate(300,398)" d="m0 0h6l3 4v4h7l5 3-1 7-8 4-2 3h-7l-7 1-4-3 1-6 4-4 1-11z" fill="#FAFAFA"/>
<path transform="translate(281,448)" d="m0 0 5 1 2 3v3l10-1 2 2v7l-6 4-2 4-11 4-6-1-1-6 4-6-2-6v-5z" fill="#F9F9F9"/>
<path transform="translate(325,467)" d="m0 0h7l2 4 9-3 5 5-1 6-3 2h-3l2 9-2 4h-6l-6-7-3-2-2-8-1-2v-6z" fill="#FAFAFA"/>
<path transform="translate(624,352)" d="m0 0 5 2 6 5-2 4-11 6-7 2h-7l-12-3-5-2v-2l13-5 12-5 9 2h3z" fill="#FAD00A"/>
<path transform="translate(416,316)" d="m0 0h5l3 2 10-1 4 4v6l-4 3h-2l2 6-1 5-2 2-6-1-4-5-4-2-3-10-1-5z" fill="#F9F9F9"/>
<path transform="translate(329,510)" d="m0 0h5l3 4v6l-4 4 2 3v6l-3 3h-5l-7-6-3-3-4-8v-6l3-2 6 1 4 3 1-4z" fill="#F9F9F9"/>
<path transform="translate(326,554)" d="m0 0h5l3 4-1 6-2 3 3 5-1 6-2 2-5-1-4-3-6-2-1-5-4-2-1-1v-7l3-2 8 1z" fill="#F8F8F8"/>
<path transform="translate(268,503)" d="m0 0 5 1 3 3 11-1 2 3v5l-5 6-3 4-5 2-3 3h-5l-3-4 1-6 2-3-3-4v-6z" fill="#FAFAFA"/>
<path transform="translate(619,315)" d="m0 0 5 3 7 9 5 11 2 11-1 8-4-1-6-5-5-8-1-4-1-14z" fill="#FAD00A"/>
<path transform="translate(642,330)" d="m0 0 3 1 8 13 4 10v9l-2 11-4-2-9-14z" fill="#FAD00A"/>
<path transform="translate(631,369)" d="m0 0h7l9 3 4 3 5 2v2h-7l-7 4-5 1h-8l-15-4-4-2 1-2z" fill="#FAD00A"/>
<path transform="translate(265,558)" d="m0 0h7l1 2 6-2h5l2 2v6l-4 7-5 5-4 5-7-1-1-5 1-7-4-4 1-5z" fill="#FAFAFA"/>
<path transform="translate(399,930)" d="m0 0h7l1 1v26l-3 6-4 3h-9l-5-3-3-5v-5l1-1h6l1 7 7-1z" fill="#F8F8F8"/>
<path transform="translate(288,610)" d="m0 0 5 1 1 2-1 9-1 7-4 1-1 5-2 2h-7l-2-10-5-5 1-6 3-3 9 3 2-5z" fill="#F8F8F8"/>
<path transform="translate(330,595)" d="m0 0 6 1 3 2-1 7v3l4 3v6l-4 3-6-2-7-1-9-9 1-5 1-1h9l2-6z" fill="#F9F8F8"/>
<path transform="translate(306,660)" d="m0 0h6l2 3v13l-4 10-3 2-5-1-1-1v-9h-7l-2-3 1-6 2-2h8l2-5z" fill="#F9F9F9"/>
<path transform="translate(670,661)" d="m0 0h12l7 3 13 2-5 5-9 4h-8l-20-2 2-6 6-5z" fill="#FAD00C"/>
<path transform="translate(345,633)" d="m0 0 5 1 3 2-1 9 6 2 1 6-3 3-13 1-10-6-2-4 4-4h7l1-8z" fill="#F9F9F9"/>
<path transform="translate(693,636)" d="m0 0 25 1-5 6-8 5-3 1h-9l-9-3-6-1 2-6 4-1z" fill="#FAD00A"/>
<path transform="translate(658,663)" d="m0 0h1v5l3-1-1 4-1 2h13l17 6 4 2-10 5-4 1h-8l-8-4-5-4-3-6z" fill="#FAD00A"/>
<path transform="translate(678,650)" d="m0 0h17l15 2v2l-11 7-6 2-8-1-15-6 4-4z" fill="#FAD00A"/>
<path transform="translate(366,780)" d="m0 0 2 1v2l-18 4h-3v2l9 3 5 2-3 1-16-5 1 92 4 1v2l-7-1-1-24-7-4v-1l8 1v-69l7-3z" fill="#30312D"/>
<path transform="translate(411,840)" d="m0 0h5l1 1-1 10-3 16 14 3v5l-2 1-19-4-1-1 1-11 4-19z" fill="#332C2B"/>
<path transform="translate(372,781)" d="m0 0h4v17h-8l-7-2v-2l-10-3-4-2v-2z" fill="#EFEFEF"/>
<path transform="translate(628,778)" d="m0 0 16 4 13 4-3 3-16 6-10 2z" fill="#F8F8F8"/>
<path transform="translate(234,729)" d="m0 0h16l25 6 6 2-1 2-24-6-6-1h-11l19 19 7 8 10 11 9 11 4 5-2 4-5 3 3-6-7-10-9-10-7-8-26-26z" fill="#2F352E"/>
<path transform="translate(370,387)" d="m0 0h5l6 7 9 4 3 4v6l-5 5-5 1-1 7-3 3h-6l-6-4-2-9-1-1v-16l4-6zm0 3-3 3-1 17h2l2 9 3 3 5-1 2-3v-7h7l3-3v-7l-3-3h-8l-2-6-2-2z" fill="#2A4332"/>
<path transform="translate(370,313)" d="m0 0h6l5 5 3 7 6 5v8l-6 5-15 1-10-2-4-7v-6l5-4 3-1 3-8zm2 2-5 3v9l-7 1-3 3 1 6 1 2 11 3 10-1 6-2 2-2-1-7-2-2-6-2v-8l-5-3z" fill="#2D3C30"/>
<path transform="translate(271,500)" d="m0 0 5 1 1 2h10l4 5v7l-3 4h-2l-2 6-8 5-1 2-10-2-2-2v-8l1-4-2-5 1-7 4-3zm-3 3-3 3v6l3 5-3 4 1 6 2 2 7-1 3-3 5-3 4-6 2-2-1-7-1-1h-6l-5 1-4-4z" fill="#2D3A30"/>
<path transform="translate(332,350)" d="m0 0h6l5 5 2 5 7 3 2 4-1 7-5 4-7 2-6 1-11-1-5-6v-6l5-5h2l2-9zm-1 3-2 3v8l-5 2-3 4 1 5 2 2 10 1 5 1 2-2 9-3 1-2v-6l-5-3h-5v-8l-2-2z" fill="#2A4232"/>
<path transform="translate(813,456)" d="m0 0h4l3 10v6l-5 4-6-1-3-5-2-7 1-5z" fill="#108D4C"/>
<path transform="translate(403,357)" d="m0 0h6l4 5 2 4 7 3 3 5-1 7-4 4-7 1-1 5-3 3h-7l-5-5-2-11 1-7 2-10zm-1 3-3 4-2 10 1 5 1 10 4 3h5l4-8 8-2 2-3v-7l-3-3-7-2-3-7z" fill="#2B4031"/>
<path transform="translate(343,423)" d="m0 0h6l4 3v2h8l5 3 2 4-1 6-6 6-2 8-3 3-7-1-5-5-4-7-2-11 1-7zm0 3-3 4 1 6 1 9 4 4 3 6h7l2-3v-8l6-2 1-1v-8l-4-3-8 2-3-6z" fill="#2B4132"/>
<path transform="translate(325,464)" d="m0 0h6l3 2h11l5 6v6l-4 5-2 11-4 3-6-1-5-5-5-6-3-9-1-5 3-6zm0 3-2 2v6l2 4 2 7 8 8h6l2-6-2-7 5-1 2-3-1-6-4-3-9 3-2-4z" fill="#274A35"/>
<path transform="translate(302,395)" d="m0 0 5 1 4 4v3l9 2 3 3v6l-4 6-6 3-3 2-15 1-5-4v-7l4-5 2-11 3-3zm-2 3-2 2-1 11-5 6 1 5 3 2 14-1 4-4 6-3 1-7-5-3h-7l-1-6-2-2z" fill="#2D392F"/>
<path transform="translate(416,313)" d="m0 0 6 1 2 1h12l4 5v7l-3 4-1 11-4 3h-8l-3-2-2-5-4-3-3-8-2-1 1-6 4-6zm0 3-3 4 1 5 3 10 6 4 4 4 5-1 2-2-1-7-1-3 5-2 1-1v-6l-4-4-10 1-3-2z" fill="#2F362E"/>
<path transform="translate(279,446)" d="m0 0h6l5 5 10 2 3 3-1 7-2 4-5 3-4 4-9 3h-6l-4-3v-8l2-4v-11zm2 2-5 3 1 7 1 4-4 6 1 6 6 1 11-4 2-4 6-4v-7l-2-2-10 1-1-5-3-2z" fill="#2A4333"/>
<path transform="translate(316,508)" d="m0 0 10 1 2-1h7l5 6-1 6-1 2-1 13-4 3h-7l-3-2v-3l-6-2-5-9-2-2 1-8zm13 2-3 3v2l-6-4-6 1-1 1v6l5 10 8 6 1 1 7-1 1-2v-6l-2-4 4-3v-6l-3-4z" fill="#2A4433"/>
<path transform="translate(266,555)" d="m0 0 11 1 7-1 4 4v10l-3 2-2 6-8 7h-9l-3-2v-11l-3-4v-6l4-5zm-1 3-3 5 1 5 3 2-1 9 1 3 7 1 4-5 5-5 4-7v-6l-2-2-7 1-4 1-1-2z" fill="#2C3C30"/>
<path transform="translate(329,593)" d="m0 0h7l5 4v10l3 4v7l-3 3-6 1-11-3-6-5-3-3-1-6 3-5 8-2zm1 2-3 5v2h-9l-2 2 1 6 6 4 2 3 7 1 6 2 4-3v-6l-5-5 2-3v-5l-5-3z" fill="#2D3A2F"/>
<path transform="translate(325,552)" d="m0 0h7l3 3 1 2v21l-3 3h-9l-9-5-3-5v-2l-4-1v-8l3-5 11-1zm1 2-6 4-7-1-3 2v7l3 3h2l2 6 6 2 5 3 4-1 2-3-1-6-2-4 3-4-1-6-2-2z" fill="#2F352E"/>
<path transform="translate(287,608)" d="m0 0 7 1 3 7-2 10-3 5-4 7-4 2-7-1-2-3-1-8-5-5v-7l5-4 9-1zm1 2-4 4v2l-9-3-3 3-1 6 5 5 2 10h7l3-4v-3l4-1 2-10v-6l-3-3z" fill="#2B4132"/>
<path transform="translate(306,657)" d="m0 0 7 1 3 3 1 6-1 4v6l-2 3v5l-5 4-7 1-3-3-1-7-4-1-4-5v-6l5-4 7-1 2-4zm0 3-3 4v2h-8l-3 5 1 5 1 1h7v9l3 2 5-1 4-8 1-3v-13l-2-3z" fill="#2A4232"/>
<path transform="translate(656,645)" d="m0 0 6 3 6 7 3 1-1 6-8 5-3 1v-11l-3-9z" fill="#F9F9F9"/>
<path transform="translate(638,891)" d="m0 0 2 1-1 2-28 8-30 7-11 2h-6l1-2 21-4 26-6z" fill="#2C3C30"/>
<path transform="translate(355,658)" d="m0 0 3 1-14 24h-3l-1-2 5-13 8-9z" fill="#F5F5F5"/>
<path transform="translate(595,936)" d="m0 0h12l2 2v6l-2 2h-11l-1-1z" fill="#108D4C"/>
<path transform="translate(689,568)" d="m0 0 7 1 6 4 2 5-1 8-2 5-2-1-4-13z" fill="#F7F7F7"/>
<path transform="translate(298,936)" d="m0 0h10l3 3-1 6-5 2h-6l-1-1z" fill="#108D4C"/>
<path transform="translate(345,631)" d="m0 0 7 1 3 5 1 6 5 5-3 1v-2l-6-2v-9l-4-2-4 1-2 8-9 2-3 4 1-6 5-3 4-4z" fill="#2A4433"/>
<path transform="translate(559,852)" d="m0 0 5 1 1 7-3 2-9 1-1-1-1-8 1-1z" fill="#F2F2F2"/>
<path transform="translate(528,868)" d="m0 0 6 1 2 5-4 4h-9l-1-2v-7z" fill="#F1F0F0"/>
<path transform="translate(619,838)" d="m0 0 6 1 1 6-6 4-5 1-3-9z" fill="#F3F2F2"/>
<path transform="translate(677,753)" d="m0 0 2 1-3 3-20 9-18 8v-3l6-3v-2l9-3 16-6z" fill="#2B4132"/>
<path transform="translate(809,565)" d="m0 0 7 1 9 4-3 3-10 3h-3z" fill="#108E4C"/>
<path transform="translate(687,584)" d="m0 0 5 1 6 4v13l-2 3h-2l-3-13-4-6z" fill="#F7F7F7"/>
<path transform="translate(692,536)" d="m0 0 11 2 5 3 1 2v11l-2 3-5-12-1-3-4-2-5-3z" fill="#FCFCFC"/>
<path transform="translate(215,384)" d="m0 0 12 1 4 1-1 6-3 4-4-2-7-7z" fill="#108E4C"/>
<path transform="translate(605,231)" d="m0 0h2v16l-7-1-4-2 2-4z" fill="#108D4C"/>
<path transform="translate(693,553)" d="m0 0 9 2 4 3 1 9-3 7h-1l-3-11-4-6z" fill="#FDFDFD"/>
<path transform="translate(695,486)" d="m0 0h11l4 3 1 14-2 1-5-10-7-6z" fill="#F9F9F9"/>
<path transform="translate(697,503)" d="m0 0 12 2 3 7v7l-2 4-4-10-4-5z" fill="#F7F7F7"/>
<path transform="translate(664,395)" d="m0 0h6l5 5 2 7-12-6h-12l1-2z" fill="#FBFAF2"/>
<path transform="translate(302,395)" d="m0 0 5 1 4 4v3l9 2 3 3v6l-2 2-1-3-1-5-10-2-3-7h-6l-2 7-3-2 2-6z" fill="#2A4433"/>
<path transform="translate(329,593)" d="m0 0 2 1-4 8-9 1-1 5 8 8 7 1v1l-8 1-6-5-3-3-1-6 3-5 8-2z" fill="#2C3E31"/>
<path transform="translate(740,832)" d="m0 0 2 1-8 3-21 6-14 5-3-1 1-2 21-7z" fill="#2D392F"/>
<path transform="translate(311,555)" d="m0 0 7 1v1l-8 2 1 7 5 5 1 3 6 2 5 3 4 2h-8l-9-5-3-5v-2l-4-1v-8z" fill="#30342D"/>
<path transform="translate(325,464)" d="m0 0h6l3 2h11l5 6-3 1-4-4-9 2-2-3h-7l-2 5h-3l2-6z" fill="#2A4232"/>
<path transform="translate(267,501)" d="m0 0 2 1-3 4v6l3 5-3 4 1 6 2 4-5-2-1-1v-8l1-4-2-5 1-7z" fill="#294634"/>
<path transform="translate(352,368)" d="m0 0h1v6l-5 4-7 2-6 1-11-1-3-3v-2l13 2 5 1 2-2 8-2z" fill="#2E382F"/>
<path transform="translate(522,856)" d="m0 0h10l1 1v5l-2 2h-9l-1-7z" fill="#F3F3F3"/>
<path transform="translate(665,636)" d="m0 0 5 2 3 3-1 13-4 2-1-2v-10z" fill="#FAFAFA"/>
<path transform="translate(690,449)" d="m0 0h9l4 9-1 4-8-8-9-3v-1z" fill="#FCFCFC"/>
<path transform="translate(378,315)" d="m0 0 3 3 3 7 6 5v8l-6 5v-3l3-3-1-7-8-3z" fill="#2D3A2F"/>
<path transform="translate(366,393)" d="m0 0h1v12l-1 5h2l3 11 3 1-3 1-4-3-2-9-1-1v-16z" fill="#2F352E"/>
<path transform="translate(636,357)" d="m0 0h2l2 5 8 7 3 1 2 3v3l-5-2-10-9-4-3z" fill="#B5BFB9"/>
<path transform="translate(286,560)" d="m0 0h2v9l-3 2-2 6-8 7h-7v-1l6-2 5-5 6-10z" fill="#30342D"/>
<path transform="translate(398,363)" d="m0 0h1v8l-1 7 1 1 1 10 6 4-4 1-5-5-2-11 2-14z" fill="#30332D"/>
<path transform="translate(301,459)" d="m0 0 1 4-2 4-5 3-4 4-9 3h-5v-2l12-4h3l2-5 5-3z" fill="#30332D"/>
<path transform="translate(312,513)" d="m0 0h1l2 8 3 6v2l5 2 6 5v2l-5-1-1-4-6-2-5-9-2-2 1-6z" fill="#2B4132"/>
<path transform="translate(403,357)" d="m0 0h6l4 5 2 4 4 1v2h-6l-3-5-1-4-7 1-3 3v-4z" fill="#2A4433"/>
<path transform="translate(730,734)" d="m0 0m-4 1h4v2l-20 6-9 3 1-4 13-4z" fill="#2C3C30"/>
<path transform="translate(348,473)" d="m0 0h2l-1 7-3 3-2 11-2 2-4-1 3-2 1-5-1-7 5-2z" fill="#2E382F"/>
<path transform="translate(650,657)" d="m0 0 5 2 3 3v8h-4l-4-9z" fill="#F7F7F7"/>
<path transform="translate(270,617)" d="m0 0h1l1 7 4 2 1 1 1 10h6v3l-7-1-2-3-1-8-5-5v-5z" fill="#2A4232"/>
<path transform="translate(339,431)" d="m0 0 2 3 1 2v9l4 2 4 8 3 2-6-1-3-4-4-7-2-13z" fill="#30332D"/>
<path transform="translate(275,453)" d="m0 0 2 3 2 6-4 6v6h2l-1 3-4-3v-8l2-4v-8z" fill="#2B4032"/>
<path transform="translate(551,940)" d="m0 0h2l3 11-1 1h-7l-1-2z" fill="#10904C"/>
<path transform="translate(652,940)" d="m0 0 3 4 2 7-1 1h-7l-1-3z" fill="#10904C"/>
<path transform="translate(442,940)" d="m0 0 2 1 3 10-1 1h-7l-1-3z" fill="#108F4C"/>
<path transform="translate(679,645)" d="m0 0 9 1 7 3v1l-19 1 2-5z" fill="#FDFDFD"/>
<path transform="translate(266,555)" d="m0 0 11 1 7-1 4 5-9-1-6 2-1-3h-6z" fill="#245338"/>
<path transform="translate(416,313)" d="m0 0 6 1 2 1h12l-2 3-10 1-3-2h-5l-3 3-1-2z" fill="#284834"/>
<path transform="translate(337,519)" d="m0 0 1 3-1 13-4 3h-4v-2l5-1v-8l-2-4z" fill="#2F352E"/>
<path transform="translate(365,440)" d="m0 0v3l-4 4-2 8-3 3h-5l-1-3 6-1 2-10z" fill="#2A4333"/>
<path transform="translate(392,844)" d="m0 0h2v11l-7-1-1-2z" fill="#E9E8E8"/>
<path transform="translate(617,801)" d="m0 0m-4 1 4 1-7 3-20 5 1-3z" fill="#2C3D30"/>
<path transform="translate(713,604)" d="m0 0m-16 1h16v1l-10 3-6 3h-2z" fill="#FBFBFB"/>
<path transform="translate(712,572)" d="m0 0h10l-12 6-5 4 1-8z" fill="#FBFBFB"/>
<path transform="translate(497,860)" d="m0 0 2 1 2 6v4h-7l1-7z" fill="#F4F3F3"/>
<path transform="translate(685,633)" d="m0 0 13 1v2l-16 3z" fill="#FBFBFB"/>
<path transform="translate(333,562)" d="m0 0 3 1v15l-4 3v-3l1-6-3-6z" fill="#284935"/>
<path transform="translate(261,803)" d="m0 0m-1 1m-1 1 1 3-12 9-7 5 2-4 10-9z" fill="#2D3B30"/>
<path transform="translate(331,649)" d="m0 0 7 4 5 3h11l-3 2h-9l-8-3-1 3-2-5z" fill="#2C3E31"/>
<path transform="translate(704,589)" d="m0 0h13v1l-10 3-7 5 1-6z" fill="#FDFDFD"/>
<path transform="translate(343,357)" d="m0 0 2 3 7 3 2 4v5l-3-1-2-6-8-2 1-4z" fill="#245338"/>
<path transform="translate(271,500)" d="m0 0 5 1 1 2 8 1-4 3-5 1-1-3-7-2z" fill="#2E372E"/>
<path transform="translate(341,636)" d="m0 0h2l-1 7-9 2-3 4 1-6 5-3z" fill="#294734"/>
<path transform="translate(315,604)" d="m0 0 2 4 8 8 7 1v1l-8 1-6-5-3-3-1-6z" fill="#294734"/>
<path transform="translate(665,653)" d="m0 0 6 3-1 6-6 2v-7z" fill="#B4BDB8"/>
<path transform="translate(366,780)" d="m0 0 2 1v2l-20 4 1-3z" fill="#2A4232"/>
<path transform="translate(673,642)" d="m0 0 2 1v2l3-1v3l-2 5-4 1v-8z" fill="#AEBBB4"/>
<path transform="translate(293,623)" d="m0 0 2 1-2 6-3 4-2 4-5 1 4-6 1-3 4-1v-5z" fill="#332C2B"/>
<path transform="translate(325,464)" d="m0 0h6l3 3-2 1h-7l-2 5h-3l2-6z" fill="#264D36"/>
<path transform="translate(370,313)" d="m0 0h6l2 1-1 3-5-1-4 2-1 6-3-2 2-6z" fill="#245438"/>
<path transform="translate(306,657)" d="m0 0 7 1 3 3 1 6-3 1-2-7h-7z" fill="#294734"/>
<path transform="translate(671,657)" d="m0 0 7 1 8 4-2 1-2-1-13-1z" fill="#FDFDFD"/>
<path transform="translate(652,789)" d="m0 0h2v2l-23 8v-3z" fill="#274C36"/>
<path transform="translate(662,668)" d="m0 0 5 1 6 3v1h-13z" fill="#FDFDFD"/>
<path transform="translate(365,321)" d="m0 0 2 3v3l-9 2-1 2h-2l2-4 6-3z" fill="#2C3F31"/>
<path transform="translate(719,537)" d="m0 0h2l-1 3-6 5-3 4-1-3 3-5z" fill="#FDFDFD"/>
<path transform="translate(330,508)" d="m0 0h5l5 6-1 6-2-1-2-7-6-2z" fill="#2C3D31"/>
<path transform="translate(352,368)" d="m0 0h1v6l-5 4-9 2 3-4 7-2z" fill="#2F362E"/>
<path transform="translate(314,668)" d="m0 0 2 3v6l-2 3v5l-4 1 3-10z" fill="#2F362E"/>
<path transform="translate(331,593)" d="m0 0 7 1 3 3v6h-2v-5l-9-3z" fill="#30342D"/>
<path transform="translate(298,682)" d="m0 0 3 1 1 3 5 1 5-1-3 3-7 1-3-3z" fill="#2A4433"/>
<path transform="translate(296,403)" d="m0 0 2 3v5l-5 4h-2l2-4z" fill="#2F362E"/>
<path transform="translate(345,631)" d="m0 0 7 1 2 2-1 3-5-3-4 1-3 1 2-4z" fill="#2B3F31"/>
<path transform="translate(321,472)" d="m0 0 3 3 2 4 1 7-3-1-3-9z" fill="#2E372E"/>
<path transform="translate(638,891)" d="m0 0 2 1-1 2-13 4-2-1 5-3z" fill="#2E372F"/>
<path transform="translate(343,423)" d="m0 0h6l-3 1v2l-4 2-4 4 1-5z" fill="#235739"/>
<path transform="translate(325,552)" d="m0 0 2 1-5 5-2 1-4-2-1-2 7-1z" fill="#274C36"/>
<path transform="translate(286,503)" d="m0 0 5 5v7l-2-1-2-7-4-2z" fill="#2C3F31"/>
<path transform="translate(334,350)" d="m0 0 6 1 3 4-1 5h-1l-2-6-6-2z" fill="#2E382F"/>
<path transform="translate(575,907)" d="m0 0 3 1-2 2-12 1 1-2z" fill="#2C3C30"/>
<path transform="translate(286,560)" d="m0 0h2v9l-6 3 2-4z" fill="#2E392F"/>
<path transform="translate(267,501)" d="m0 0 2 1-4 7-1 2h-2l1-7z" fill="#255037"/>
<path transform="translate(586,905)" d="m0 0h5v2l-10 2-4-1 3-2z" fill="#30322D"/>
<path transform="translate(338,603)" d="m0 0h3l1 5 2 4-4-2-4-4z" fill="#2B4032"/>
<path transform="translate(370,387)" d="m0 0h5l-1 3-6 1v2l-3 1 2-5z" fill="#2A4433"/>
<path transform="translate(305,658)" d="m0 0m-1 1 1 3-2 4h-7l3-3h3z" fill="#2D3A2F"/>
<path transform="translate(294,613)" d="m0 0h2l1 7-5 4z" fill="#2C3D31"/>
<path transform="translate(318,405)" d="m0 0 4 2 1 1v6l-2 2-1-3-1-5-3-2z" fill="#264F37"/>
</svg>
